<svg width="25" height="25" viewBox="0 0 25 25" fill="none" xmlns="http://www.w3.org/2000/svg">
<path d="M1.1112 21.1527C0.355641 21.9083 0.355641 23.1332 1.1112 23.8888C1.86675 24.6444 3.09175 24.6444 3.8473 23.8888L1.1112 21.1527ZM24.9348 1.99997C24.9348 0.93145 24.0685 0.0652474 23 0.0652474H5.58757C4.51906 0.0652474 3.65285 0.93145 3.65285 1.99997C3.65285 3.06848 4.51906 3.93468 5.58757 3.93468L21.0653 3.93468L21.0653 19.4124C21.0653 20.4809 21.9315 21.3471 23 21.3471C24.0685 21.3471 24.9348 20.4809 24.9348 19.4124V1.99997ZM3.8473 23.8888L24.3681 3.36802L21.632 0.631913L1.1112 21.1527L3.8473 23.8888Z" fill="black"/>
</svg>
