<svg width="261" height="60" viewBox="0 0 261 60" fill="none" xmlns="http://www.w3.org/2000/svg">
<path d="M87.7198 41.1C85.0198 41.1 82.4998 40.5 80.2198 39.3C77.9998 38.1 76.1998 36.42 74.8198 34.2C73.4998 31.98 72.8398 29.52 72.8398 26.82C72.8398 24.12 73.4998 21.66 74.8198 19.5C76.1398 17.34 77.9398 15.66 80.2198 14.4C82.4998 13.2 84.9598 12.6 87.7198 12.6C90.4198 12.6 92.9398 13.2 95.1598 14.4C97.4398 15.6 99.2398 17.28 100.5 19.5C101.82 21.66 102.48 24.12 102.48 26.82C102.48 29.52 101.82 31.98 100.5 34.2C99.1798 36.36 97.3798 38.04 95.1598 39.3C92.9398 40.5 90.4198 41.1 87.7198 41.1ZM87.7198 34.92C89.9998 34.92 91.8598 34.2 93.2398 32.7C94.6198 31.2 95.3398 29.28 95.3398 26.82C95.3398 24.36 94.6198 22.38 93.2398 20.94C91.8598 19.44 90.0598 18.72 87.7198 18.72C85.3798 18.72 83.5198 19.44 82.1398 20.88C80.7598 22.32 80.0998 24.3 80.0998 26.76C80.0998 29.22 80.7598 31.2 82.1398 32.64C83.5198 34.2 85.3798 34.92 87.7198 34.92Z" fill="#898989" fill-opacity="0.79"/>
<path d="M113.4 21.84C114.06 20.82 115.02 19.98 116.22 19.32C117.42 18.66 118.86 18.36 120.48 18.36C122.4 18.36 124.08 18.84 125.64 19.74C127.2 20.64 128.4 21.96 129.24 23.7C130.14 25.44 130.62 27.42 130.62 29.7C130.62 31.98 130.14 33.96 129.24 35.7C128.34 37.44 127.14 38.76 125.64 39.72C124.08 40.62 122.4 41.1 120.48 41.1C118.92 41.1 117.48 40.8 116.22 40.14C115.02 39.48 114.06 38.7 113.4 37.68V47.34H106.38V18.66H113.4V21.84ZM123.42 29.7C123.42 28.02 122.94 26.7 121.92 25.74C120.96 24.78 119.76 24.3 118.32 24.3C116.94 24.3 115.74 24.78 114.72 25.74C113.76 26.7 113.28 28.08 113.28 29.76C113.28 31.44 113.76 32.76 114.72 33.78C115.68 34.74 116.88 35.22 118.32 35.22C119.7 35.22 120.9 34.74 121.92 33.78C122.94 32.76 123.42 31.44 123.42 29.7Z" fill="#898989" fill-opacity="0.79"/>
<path d="M155.88 29.4C155.88 30.06 155.82 30.72 155.76 31.38H139.86C139.98 32.76 140.4 33.84 141.24 34.56C142.08 35.28 143.04 35.64 144.24 35.64C145.98 35.64 147.24 34.92 147.9 33.48H155.4C155.04 34.92 154.32 36.24 153.3 37.38C152.34 38.52 151.08 39.48 149.58 40.14C148.08 40.8 146.4 41.16 144.54 41.16C142.32 41.16 140.28 40.68 138.54 39.78C136.8 38.88 135.42 37.56 134.46 35.82C133.5 34.08 132.96 32.1 132.96 29.82C132.96 27.54 133.44 25.5 134.4 23.82C135.36 22.08 136.74 20.76 138.48 19.86C140.22 18.96 142.26 18.48 144.54 18.48C146.76 18.48 148.74 18.9 150.48 19.8C152.22 20.7 153.54 21.96 154.5 23.64C155.4 25.26 155.88 27.18 155.88 29.4ZM148.68 27.6C148.68 26.46 148.26 25.5 147.42 24.84C146.58 24.18 145.56 23.82 144.36 23.82C143.16 23.82 142.2 24.18 141.36 24.84C140.58 25.5 140.1 26.46 139.86 27.66H148.68V27.6Z" fill="#898989" fill-opacity="0.79"/>
<path d="M173.58 18.48C176.28 18.48 178.38 19.32 180 21C181.62 22.68 182.4 24.96 182.4 27.9V40.8H175.44V28.8C175.44 27.3 175.02 26.16 174.24 25.38C173.46 24.54 172.38 24.18 171.06 24.18C169.74 24.18 168.66 24.6 167.88 25.38C167.1 26.22 166.68 27.36 166.68 28.8V40.8H159.6V18.66H166.62V21.6C167.34 20.64 168.3 19.86 169.5 19.32C170.7 18.78 172.08 18.48 173.58 18.48Z" fill="#898989" fill-opacity="0.79"/>
<path d="M197.7 41.1C195.6 41.1 193.68 40.74 192 40.08C190.32 39.42 189 38.46 187.98 37.14C187.02 35.82 186.48 34.26 186.42 32.46H193.92C194.04 33.48 194.4 34.26 195.06 34.86C195.66 35.4 196.5 35.64 197.52 35.64C198.54 35.64 199.38 35.4 199.98 34.98C200.58 34.5 200.88 33.84 200.88 33.06C200.88 32.4 200.64 31.8 200.16 31.38C199.68 30.96 199.08 30.54 198.42 30.3C197.76 30 196.74 29.7 195.48 29.28C193.62 28.74 192.12 28.2 190.92 27.6C189.72 27.06 188.7 26.22 187.86 25.14C187.02 24.06 186.6 22.62 186.6 20.88C186.6 18.3 187.56 16.26 189.54 14.82C191.46 13.32 194.04 12.6 197.16 12.6C200.34 12.6 202.92 13.32 204.84 14.82C206.76 16.26 207.84 18.3 207.96 20.94H200.34C200.28 20.04 199.92 19.32 199.32 18.84C198.72 18.3 197.88 18.06 196.92 18.06C196.08 18.06 195.36 18.3 194.88 18.72C194.34 19.14 194.1 19.74 194.1 20.58C194.1 21.48 194.52 22.2 195.42 22.68C196.32 23.16 197.64 23.7 199.5 24.3C201.36 24.9 202.86 25.5 204 26.04C205.2 26.58 206.22 27.42 207.06 28.44C207.9 29.52 208.32 30.84 208.32 32.52C208.32 34.08 207.9 35.52 207.06 36.84C206.22 38.16 205.02 39.18 203.46 39.96C201.78 40.74 199.92 41.1 197.7 41.1Z" fill="#898989" fill-opacity="0.79"/>
<path d="M234.18 29.4C234.18 30.06 234.12 30.72 234.06 31.38H218.16C218.28 32.76 218.7 33.84 219.54 34.56C220.38 35.28 221.34 35.64 222.54 35.64C224.28 35.64 225.54 34.92 226.2 33.48H233.7C233.34 34.92 232.62 36.24 231.6 37.38C230.64 38.52 229.38 39.48 227.88 40.14C226.38 40.8 224.7 41.16 222.84 41.16C220.62 41.16 218.58 40.68 216.84 39.78C215.1 38.88 213.72 37.56 212.76 35.82C211.8 34.08 211.26 32.1 211.26 29.82C211.26 27.54 211.74 25.5 212.7 23.82C213.66 22.08 215.04 20.76 216.78 19.86C218.52 18.96 220.56 18.48 222.84 18.48C225.06 18.48 227.04 18.9 228.78 19.8C230.52 20.7 231.84 21.96 232.8 23.64C233.7 25.26 234.18 27.18 234.18 29.4ZM226.98 27.6C226.98 26.46 226.56 25.5 225.72 24.84C224.88 24.18 223.86 23.82 222.66 23.82C221.46 23.82 220.5 24.18 219.66 24.84C218.88 25.5 218.4 26.46 218.16 27.66H226.98V27.6Z" fill="#898989" fill-opacity="0.79"/>
<path d="M236.521 29.7C236.521 27.42 236.94 25.44 237.84 23.7C238.74 21.96 239.941 20.64 241.501 19.74C243.061 18.84 244.741 18.36 246.661 18.36C248.281 18.36 249.661 18.66 250.921 19.32C252.181 19.98 253.08 20.76 253.74 21.84V18.72H260.76V40.86H253.74V37.74C253.08 38.76 252.121 39.6 250.861 40.26C249.661 40.92 248.221 41.22 246.601 41.22C244.741 41.22 243.061 40.74 241.501 39.84C239.941 38.88 238.74 37.56 237.84 35.82C236.94 34.02 236.521 31.98 236.521 29.7ZM253.68 29.76C253.68 28.08 253.2 26.76 252.18 25.74C251.22 24.78 250.02 24.3 248.64 24.3C247.26 24.3 246.06 24.78 245.04 25.74C244.08 26.7 243.601 28.02 243.601 29.7C243.601 31.38 244.08 32.76 245.04 33.72C246 34.68 247.2 35.16 248.64 35.16C250.02 35.16 251.22 34.68 252.18 33.72C253.2 32.82 253.68 31.44 253.68 29.76Z" fill="#898989" fill-opacity="0.79"/>
<path d="M60 30C60 46.56 46.56 60 30 60C13.44 60 0 46.56 0 30C0 13.44 13.44 0 30 0C46.56 0 60 13.44 60 30Z" fill="#898989" fill-opacity="0.79"/>
<path d="M14.8203 31.02L14.9403 30.84L22.7403 18.66C22.8603 18.48 23.1003 18.48 23.2203 18.72C24.5403 21.66 25.6203 25.26 25.1403 27.54C24.9003 28.5 24.3003 29.76 23.5803 30.9C23.5203 31.08 23.4003 31.26 23.2803 31.38C23.2203 31.44 23.1603 31.5 23.0403 31.5H15.0003C14.8203 31.44 14.7003 31.2 14.8203 31.02Z" fill="white"/>
<path d="M49.56 33.3V35.22C49.56 35.34 49.5 35.4 49.38 35.46C48.78 35.7 46.68 36.66 45.84 37.86C43.62 40.92 41.94 45.3 38.22 45.3H22.56C17.04 45.3 12.54 40.8 12.54 35.22V35.04C12.54 34.92 12.66 34.8 12.78 34.8H21.6C21.78 34.8 21.9 34.98 21.9 35.1C21.84 35.64 21.96 36.24 22.2 36.78C22.74 37.86 23.82 38.46 24.96 38.46H29.28V35.1H25.02C24.78 35.1 24.66 34.86 24.78 34.68C24.84 34.62 24.9 34.56 24.96 34.44C25.38 33.84 25.92 33 26.52 31.98C26.94 31.32 27.3 30.54 27.6 29.82C27.66 29.7 27.72 29.58 27.78 29.4C27.84 29.16 27.96 28.92 28.02 28.74C28.08 28.56 28.14 28.38 28.2 28.2C28.32 27.6 28.38 26.94 28.38 26.22C28.38 25.98 28.38 25.68 28.32 25.38C28.32 25.08 28.26 24.78 28.26 24.48C28.26 24.24 28.2 23.94 28.14 23.7C28.08 23.28 28.02 22.92 27.9 22.5L27.84 22.38C27.78 22.14 27.72 21.84 27.6 21.6C27.36 20.76 27.06 19.92 26.76 19.2C26.64 18.9 26.52 18.6 26.4 18.3C26.22 17.88 26.04 17.46 25.86 17.1C25.8 16.92 25.68 16.8 25.62 16.62C25.56 16.44 25.44 16.26 25.38 16.08C25.32 15.96 25.26 15.84 25.2 15.72L24.66 14.76C24.6 14.64 24.72 14.46 24.84 14.52L28.14 15.42L28.56 15.54L29.04 15.66L29.22 15.72V13.74C29.22 12.78 30 12 30.9 12C31.38 12 31.8 12.18 32.1 12.48C32.4 12.78 32.58 13.2 32.58 13.68V16.56L32.94 16.68C32.94 16.68 33 16.68 33 16.74C33.06 16.8 33.18 16.92 33.36 17.04C33.48 17.16 33.6 17.28 33.78 17.4C34.08 17.64 34.5 18 34.92 18.36C35.04 18.48 35.16 18.54 35.22 18.66C35.76 19.14 36.36 19.74 36.96 20.4C37.14 20.58 37.26 20.76 37.44 20.94C37.62 21.12 37.74 21.36 37.92 21.54C38.1 21.78 38.34 22.08 38.52 22.32C38.58 22.44 38.7 22.56 38.76 22.74C39 23.1 39.18 23.46 39.42 23.82C39.48 24 39.6 24.18 39.66 24.36C39.9 24.84 40.08 25.32 40.14 25.86C40.2 25.98 40.2 26.1 40.2 26.16C40.26 26.28 40.26 26.46 40.26 26.64C40.32 27.18 40.26 27.66 40.2 28.2C40.14 28.44 40.08 28.62 40.02 28.86C39.96 29.04 39.9 29.28 39.78 29.52C39.6 29.94 39.36 30.36 39.12 30.78C39.06 30.9 38.94 31.08 38.82 31.26C38.7 31.44 38.58 31.56 38.52 31.74C38.4 31.92 38.22 32.1 38.1 32.28C37.98 32.46 37.86 32.64 37.68 32.82C37.5 33.06 37.26 33.3 37.08 33.54C36.96 33.66 36.84 33.84 36.66 33.96C36.54 34.08 36.42 34.26 36.24 34.38C36.06 34.56 35.88 34.74 35.7 34.86L35.34 35.16C35.28 35.22 35.22 35.22 35.16 35.22H32.52V38.58H35.82C36.54 38.58 37.26 38.34 37.8 37.86C37.98 37.68 38.82 36.96 39.84 35.88C39.9 35.82 39.9 35.82 39.96 35.82L49.08 33.18C49.44 33 49.56 33.12 49.56 33.3Z" fill="white"/>
</svg>
