<svg width="316" height="48" viewBox="0 0 316 48" fill="none" xmlns="http://www.w3.org/2000/svg">
<path d="M78.7069 3.86973L73.7244 11.1027C72.0627 10.4398 70.2901 10.0988 68.501 10.0979C67.4503 10.093 66.4025 10.2101 65.3787 10.4467C65.2299 10.4738 65.083 10.5099 64.9385 10.5546C63.3719 10.9187 61.8911 11.5844 60.5788 12.5144C60.4228 12.61 60.2731 12.7154 60.1304 12.83C58.9675 13.6845 57.9424 14.7124 57.091 15.8776C53.8109 19.9882 51.3279 25.8427 47.0263 32.021C46.6028 32.6439 46.1959 33.275 45.6727 33.9061C42.329 38.5638 37.8841 42.3211 32.7348 44.8428L31.9043 45.2497C31.1653 45.5652 30.4179 45.8393 29.6622 46.0801C29.1639 46.2296 28.6657 46.3624 28.1591 46.4787C26.7326 46.8256 25.2748 47.0287 23.8077 47.0849H22.8777C19.1401 47.093 15.4577 46.1832 12.1539 44.4356C8.85009 42.6879 6.02593 40.1557 3.92945 37.0615C1.83296 33.9673 0.528285 30.4056 0.129994 26.6893C-0.268298 22.973 0.251981 19.2158 1.64514 15.7476C3.0383 12.2793 5.26171 9.20621 8.12012 6.79811C10.9785 4.39 14.3845 2.72056 18.0389 1.93641C21.6933 1.15226 25.4843 1.27739 29.0791 2.30079C32.6738 3.3242 35.9623 5.21459 38.6557 7.80593L33.6731 15.0804C32.1305 13.2697 30.157 11.8763 27.9344 11.0286C25.7117 10.1808 23.3116 9.90609 20.9549 10.2296C18.5982 10.5531 16.3608 11.4645 14.4489 12.8798C12.537 14.2951 11.0119 16.1688 10.0143 18.3283C9.01668 20.4878 8.57854 22.8636 8.74025 25.2368C8.90196 27.6101 9.65832 29.9045 10.9396 31.9087C12.221 33.9129 13.9861 35.5624 16.0723 36.7053C18.1586 37.8482 20.4989 38.4477 22.8777 38.4485C23.1875 38.4652 23.4979 38.4652 23.8077 38.4485C25.7161 38.3308 27.5794 37.819 29.2802 36.9454H29.3632C34.1963 34.6286 38.1325 29.6211 44.8506 18.1032C45.1413 17.6132 45.4236 17.1233 45.681 16.6167C47.9083 12.5537 50.9569 8.99882 54.633 6.17831L55.0482 5.87105C55.2226 5.73818 55.4136 5.61362 55.5963 5.48075C56.0364 5.1901 56.4765 4.91606 56.9 4.65033C57.3236 4.38459 57.9879 4.04412 58.5194 3.77839L59.0425 3.52096L59.7982 3.18879L60.8113 2.79018C63.7123 1.75855 66.7916 1.32244 69.8649 1.50793C72.9383 1.69341 75.9428 2.49669 78.6986 3.86973H78.7069Z" fill="#898989" fill-opacity="0.79"/>
<path d="M91.3542 19.9302V24.2816C91.3541 25.0611 91.3126 25.84 91.2297 26.6151C91.1672 27.273 91.0701 27.9271 90.939 28.5749C90.1819 32.571 88.3698 36.292 85.6905 39.3521C83.0112 42.4121 79.5622 44.6999 75.701 45.9782C71.8399 47.2565 67.7071 47.4788 63.7311 46.6221C59.7551 45.7654 56.0805 43.8609 53.0884 41.1059L58.0709 33.8647C59.7419 35.7115 61.8716 37.0834 64.2441 37.8411C66.6166 38.5988 69.1473 38.7155 71.5794 38.1791C74.0115 37.6428 76.2584 36.4726 78.0922 34.7872C79.9259 33.1019 81.2811 30.9615 82.0203 28.5832H67.845L73.7908 19.9302H91.3542Z" fill="#898989" fill-opacity="0.79"/>
<path d="M142.051 19.6064C140.692 18.3337 138.889 17.6449 137.027 17.6881C136.207 17.6477 135.388 17.7794 134.622 18.0747C133.856 18.3701 133.161 18.8226 132.58 19.403C132 19.9834 131.548 20.679 131.252 21.4448C130.957 22.2107 130.825 23.03 130.866 23.8498C130.849 24.6839 131.003 25.5126 131.319 26.2847C131.636 27.0568 132.107 27.7559 132.704 28.3388C133.3 28.9216 134.011 29.376 134.79 29.6737C135.569 29.9714 136.401 30.1062 137.235 30.0697C139.037 30.0631 140.769 29.3748 142.085 28.1431V34.1637C139.82 35.3112 137.264 35.7514 134.746 35.4271C132.229 35.1028 129.867 34.0289 127.967 32.345C126.834 31.2652 125.938 29.9608 125.338 28.5152C124.737 27.0695 124.445 25.5145 124.48 23.9495C124.418 22.3978 124.677 20.8501 125.242 19.4033C125.806 17.9566 126.663 16.642 127.76 15.542C128.856 14.442 130.167 13.5802 131.612 13.0107C133.057 12.4411 134.603 12.1761 136.155 12.2322C138.202 12.1978 140.228 12.6474 142.068 13.5443L142.051 19.6064Z" fill="#898989" fill-opacity="0.79"/>
<path d="M168.226 15.3129C169.406 16.4072 170.343 17.7368 170.977 19.2159C171.61 20.695 171.927 22.2905 171.905 23.8995C171.92 25.5021 171.599 27.0901 170.965 28.5616C170.33 30.0331 169.394 31.3557 168.218 32.4445C166.35 34.1635 163.518 35.5254 159.374 35.5254C155.23 35.5254 152.407 34.1635 150.53 32.4445C149.365 31.3425 148.437 30.0145 147.803 28.5417C147.169 27.0689 146.842 25.4822 146.842 23.8787C146.842 22.2752 147.169 20.6886 147.803 19.2158C148.437 17.743 149.365 16.4149 150.53 15.3129C152.407 13.5939 155.23 12.2321 159.374 12.2321C163.518 12.2321 166.358 13.5939 168.226 15.3129ZM165.552 23.8995C165.552 22.6792 165.191 21.4863 164.513 20.4716C163.835 19.4569 162.871 18.6661 161.744 18.1991C160.616 17.7321 159.376 17.6099 158.179 17.848C156.982 18.0861 155.882 18.6737 155.02 19.5366C154.157 20.3995 153.569 21.4989 153.331 22.6958C153.093 23.8926 153.215 25.1332 153.682 26.2607C154.149 27.3881 154.94 28.3517 155.954 29.0297C156.969 29.7077 158.162 30.0695 159.382 30.0695C160.195 30.0773 161.001 29.923 161.753 29.6157C162.505 29.3083 163.188 28.8542 163.763 28.2797C164.337 27.7052 164.791 27.0219 165.099 26.2698C165.406 25.5177 165.56 24.7119 165.552 23.8995V23.8995Z" fill="#898989" fill-opacity="0.79"/>
<path d="M181.04 0C182.015 0.00652769 182.95 0.397082 183.64 1.08713C184.33 1.77718 184.72 2.71122 184.727 3.68707C184.727 4.41631 184.51 5.12917 184.105 5.7355C183.7 6.34184 183.124 6.81442 182.451 7.09349C181.777 7.37255 181.036 7.44557 180.32 7.3033C179.605 7.16104 178.948 6.80988 178.432 6.29423C177.917 5.77858 177.566 5.12161 177.423 4.40639C177.281 3.69116 177.354 2.94982 177.633 2.27609C177.912 1.60237 178.385 1.02652 178.991 0.621384C179.598 0.216243 180.31 0 181.04 0V0ZM184.12 12.938V34.8196H177.959V12.938H184.12Z" fill="#898989" fill-opacity="0.79"/>
<path d="M191.221 12.938H197.391V15.7781C198.136 14.6724 199.145 13.7699 200.327 13.1522C201.508 12.5346 202.825 12.2212 204.159 12.2405C206.077 12.2405 208.909 12.7968 210.628 14.9144C212.139 16.7829 212.347 18.9586 212.347 21.0845V34.8196H206.177V22.8948C206.177 21.6824 206.127 19.7558 205.014 18.5932C204.634 18.2248 204.184 17.9365 203.69 17.7453C203.197 17.5542 202.67 17.4641 202.141 17.4804C201.394 17.4355 200.649 17.5903 199.982 17.9289C199.315 18.2675 198.75 18.7777 198.346 19.407C197.618 20.6972 197.286 22.1729 197.391 23.6505V34.8196H191.221V12.938Z" fill="#898989" fill-opacity="0.79"/>
<path d="M236.146 12.938H242.308V33.8065C242.308 37.1282 242.009 40.6326 239.277 43.3564C237.766 44.876 235.125 46.4372 230.641 46.4372C226.397 46.4372 223.864 45.175 222.453 43.946C220.61 42.1808 219.372 39.8791 218.915 37.369H225.559C225.798 38.3735 226.326 39.2858 227.078 39.9932C228.136 40.8316 229.468 41.2461 230.815 41.1557C232.192 41.2151 233.536 40.7252 234.552 39.7939C235.972 38.432 236.121 36.713 236.121 34.9442V31.8882C235.416 33.0279 234.425 33.9632 233.247 34.6013C232.068 35.2393 230.743 35.558 229.403 35.5255C228.004 35.566 226.611 35.3228 225.308 34.8104C224.005 34.2981 222.819 33.5272 221.822 32.5443C220.688 31.4021 219.795 30.0441 219.196 28.5506C218.597 27.0572 218.304 25.4586 218.334 23.8497C218.299 22.2495 218.582 20.6582 219.165 19.1675C219.748 17.6768 220.62 16.316 221.73 15.1635C223.757 13.2379 226.459 12.1852 229.254 12.2321C230.614 12.159 231.969 12.4489 233.18 13.072C234.391 13.6951 235.415 14.629 236.146 15.778V12.938ZM226.713 19.1994C226.066 19.7847 225.555 20.5041 225.215 21.3073C224.875 22.1104 224.715 22.9781 224.745 23.8497C224.702 25.4361 225.28 26.9767 226.356 28.143C226.922 28.7569 227.611 29.2454 228.377 29.5772C229.144 29.909 229.972 30.0767 230.807 30.0696C232.311 30.076 233.765 29.536 234.901 28.5499C235.531 27.9411 236.03 27.2104 236.368 26.4024C236.707 25.5943 236.877 24.7258 236.869 23.8497C236.883 22.2091 236.247 20.6296 235.1 19.4568C234.552 18.8728 233.885 18.4128 233.145 18.1077C232.404 17.8026 231.607 17.6595 230.807 17.688C229.3 17.6538 227.836 18.1942 226.713 19.1994V19.1994Z" fill="#898989" fill-opacity="0.79"/>
<path d="M266.216 12.9379H272.386V34.8196H266.224V31.9878C265.493 33.0978 264.493 34.0045 263.317 34.6231C262.14 35.2418 260.827 35.5522 259.498 35.5254C252.78 35.5254 248.337 30.2689 248.337 23.8497C248.337 17.4305 252.73 12.2238 259.199 12.2238C260.577 12.1539 261.949 12.4451 263.18 13.0685C264.41 13.6919 265.457 14.6259 266.216 15.778V12.9379ZM254.69 23.8497C254.659 24.6652 254.794 25.4784 255.085 26.2408C255.377 27.0031 255.819 27.6989 256.385 28.2865C256.951 28.8741 257.63 29.3415 258.381 29.6608C259.132 29.98 259.94 30.1446 260.756 30.1446C261.572 30.1446 262.38 29.98 263.131 29.6608C263.882 29.3415 264.561 28.8741 265.127 28.2865C265.693 27.6989 266.135 27.0031 266.426 26.2408C266.718 25.4784 266.852 24.6652 266.822 23.8497C266.852 23.0342 266.718 22.221 266.426 21.4586C266.135 20.6963 265.693 20.0005 265.127 19.4129C264.561 18.8253 263.882 18.3579 263.131 18.0386C262.38 17.7194 261.572 17.5548 260.756 17.5548C259.94 17.5548 259.132 17.7194 258.381 18.0386C257.63 18.3579 256.951 18.8253 256.385 19.4129C255.819 20.0005 255.377 20.6963 255.085 21.4586C254.794 22.221 254.659 23.0342 254.69 23.8497V23.8497Z" fill="#898989" fill-opacity="0.79"/>
<path d="M285.673 18.1945V34.8029H279.503V18.1945H277.078V12.9379H279.503V5.46411H285.673V12.9379H289.916V18.1945H285.673Z" fill="#898989" fill-opacity="0.79"/>
<path d="M315.892 28.6994C315.228 30.3187 312.753 35.5255 305.097 35.5255C303.564 35.5993 302.031 35.3647 300.591 34.8355C299.15 34.3063 297.83 33.4933 296.709 32.4446C295.555 31.3519 294.65 30.0227 294.056 28.5479C293.463 27.0731 293.195 25.4874 293.271 23.8996C293.211 22.3176 293.475 20.74 294.046 19.2635C294.617 17.787 295.484 16.4427 296.593 15.313C297.688 14.2711 298.982 13.4611 300.398 12.9317C301.813 12.4023 303.321 12.1643 304.831 12.2321C309.282 12.2321 311.856 14.0009 313.368 15.8195C315.693 18.5932 316 22.0311 316 24.4061V24.9127H299.666C299.638 26.2211 300.009 27.507 300.729 28.5997C301.236 29.2779 301.901 29.8217 302.667 30.1836C303.433 30.5454 304.276 30.7144 305.122 30.6758C306.155 30.7091 307.178 30.458 308.078 29.9499C308.979 29.4418 309.723 28.6961 310.229 27.7942L315.892 28.6994ZM310.229 20.9682C310.025 19.7417 309.393 18.6271 308.445 17.8231C307.497 17.0191 306.294 16.5778 305.051 16.5778C303.808 16.5778 302.605 17.0191 301.657 17.8231C300.709 18.6271 300.077 19.7417 299.873 20.9682H310.229Z" fill="#898989" fill-opacity="0.79"/>
</svg>
