<svg width="233" height="43" viewBox="0 0 233 43" fill="none" xmlns="http://www.w3.org/2000/svg">
<g clip-path="url(#clip0_33_6)">
<path d="M217.269 34.8877L208.532 14.8171H214.382L220.349 29.2114L227.246 14.8171H233L219.4 42.4626H213.549L217.269 34.8877ZM195.993 30.7321C196.51 30.6146 197.008 30.4289 197.475 30.18C197.927 29.9395 198.347 29.6434 198.725 29.2985C199.102 28.9528 199.429 28.5548 199.694 28.1167C199.971 27.6566 200.186 27.1614 200.333 26.6444C200.492 26.0803 200.57 25.4965 200.565 24.9105C200.571 24.318 200.492 23.7278 200.333 23.1572C200.186 22.6402 199.971 22.1451 199.694 21.6849C199.427 21.245 199.101 20.8441 198.725 20.4934C198.351 20.1455 197.931 19.852 197.475 19.6216C197.005 19.3848 196.507 19.2059 195.993 19.0889C195.453 18.9651 194.901 18.9033 194.347 18.9048C193.796 18.9029 193.246 18.9647 192.709 19.0889C192.202 19.2059 191.711 19.3849 191.247 19.6216C190.793 19.8551 190.373 20.1483 189.997 20.4934C189.616 20.8421 189.287 21.2433 189.019 21.6849C188.742 22.1441 188.53 22.6396 188.389 23.1572C188.236 23.7289 188.161 24.3187 188.167 24.9105C188.162 25.4959 188.237 26.0792 188.389 26.6444C188.53 27.162 188.742 27.6575 189.019 28.1167C189.285 28.5565 189.615 28.9547 189.997 29.2985C190.378 29.6406 190.797 29.9365 191.247 30.18C191.707 30.4288 192.199 30.6145 192.709 30.7321C193.246 30.8565 193.796 30.9183 194.347 30.9162C194.901 30.9179 195.453 30.8562 195.993 30.7321V30.7321ZM190.094 35.2267C189.197 34.9985 188.334 34.6532 187.527 34.1999C185.955 33.3161 184.658 32.0155 183.778 30.4416C183.325 29.6278 182.98 28.7584 182.752 27.8553C182.274 25.9147 182.274 23.8871 182.752 21.9465C182.979 21.0461 183.324 20.1797 183.778 19.3698C184.662 17.8014 185.959 16.505 187.527 15.6211C188.334 15.1679 189.197 14.8227 190.094 14.5944C191.053 14.3511 192.04 14.2306 193.029 14.2359C193.563 14.2347 194.097 14.2671 194.627 14.3328C195.115 14.3932 195.598 14.4903 196.071 14.6234C196.509 14.7479 196.94 14.8999 197.359 15.0787C197.752 15.2457 198.131 15.4433 198.492 15.6696C198.833 15.8826 199.151 16.1292 199.442 16.4057C199.714 16.6642 199.966 16.9426 200.197 17.2388V14.8171H205.757V35.0039H200.197V32.5823C199.842 33.0283 199.435 33.4314 198.986 33.7834C198.49 34.1731 197.947 34.4985 197.369 34.7521C196.726 35.0343 196.053 35.2423 195.364 35.372C194.594 35.5177 193.812 35.5891 193.029 35.5851C192.04 35.5904 191.053 35.47 190.094 35.2267V35.2267ZM169.909 19.9316C170.705 19.9462 171.5 19.855 172.272 19.6604C172.874 19.5083 173.436 19.2274 173.919 18.837C174.355 18.4735 174.689 18.0028 174.888 17.4712C175.104 16.8689 175.21 16.2321 175.198 15.592C175.21 14.9551 175.105 14.3213 174.888 13.7225C174.688 13.1967 174.354 12.7324 173.919 12.3761C173.434 11.9915 172.873 11.7142 172.272 11.5624C171.5 11.368 170.705 11.2768 169.909 11.2912H164.446V19.9316L169.909 19.9316ZM158.692 6.52539H170.451C172.298 6.52539 173.9 6.75141 175.256 7.20346C176.612 7.6555 177.729 8.2819 178.607 9.08265C179.481 9.87661 180.155 10.8657 180.574 11.9693C181.014 13.1327 181.234 14.3676 181.223 15.6114C181.237 16.8522 181.016 18.0846 180.574 19.2439C180.148 20.3383 179.475 21.3195 178.607 22.1111C177.729 22.9185 176.612 23.5481 175.256 24C173.9 24.4523 172.298 24.6784 170.451 24.678H164.446V35.0039H158.692V6.52539ZM133.984 14.8171H139.506V17.2387C139.846 16.7687 140.251 16.3482 140.707 15.9892C141.19 15.6104 141.717 15.2916 142.276 15.0399C142.893 14.7642 143.54 14.5626 144.204 14.4393C144.941 14.3006 145.691 14.2325 146.441 14.2359C147.61 14.2192 148.772 14.4161 149.87 14.8171C150.849 15.1775 151.735 15.7498 152.466 16.4929C153.201 17.263 153.757 18.1858 154.094 19.1954C154.483 20.3564 154.672 21.5746 154.656 22.7988V35.0039H149.134V24.2324C149.147 23.445 149.036 22.6604 148.805 21.9077C148.613 21.2862 148.293 20.7119 147.865 20.2222C147.454 19.7673 146.939 19.4184 146.364 19.2051C145.712 18.9694 145.023 18.8545 144.33 18.8661C143.634 18.8551 142.941 18.9699 142.286 19.2051C141.707 19.4166 141.188 19.7656 140.775 20.2222C140.347 20.7119 140.027 21.2862 139.835 21.9077C139.604 22.6604 139.492 23.445 139.506 24.2324V35.0039H133.984V14.8171ZM120.398 30.674C120.925 30.5466 121.435 30.358 121.918 30.1122C122.378 29.8771 122.8 29.5733 123.168 29.2113C123.533 28.8541 123.849 28.4502 124.108 28.0102C124.371 27.557 124.567 27.0674 124.689 26.5572C124.82 26.0051 124.886 25.4393 124.882 24.8717C124.886 24.3073 124.821 23.7446 124.689 23.1959C124.444 22.1846 123.917 21.2639 123.168 20.5418C122.795 20.183 122.374 19.8766 121.918 19.6313C121.439 19.3741 120.928 19.1819 120.398 19.0598C119.823 18.9277 119.234 18.8627 118.644 18.866C118.061 18.8634 117.479 18.9284 116.91 19.0598C116.383 19.1808 115.875 19.3731 115.399 19.6313C114.947 19.8783 114.53 20.1845 114.159 20.5418C113.794 20.8936 113.484 21.2986 113.239 21.7429C112.989 22.1995 112.794 22.684 112.658 23.1863C112.512 23.736 112.44 24.3029 112.445 24.8718C112.442 25.4405 112.513 26.0072 112.658 26.5572C112.791 27.0638 112.986 27.5519 113.239 28.0102C113.487 28.4526 113.797 28.8571 114.159 29.2114C114.526 29.5718 114.943 29.8754 115.399 30.1122C115.879 30.3592 116.386 30.5478 116.91 30.6741C117.478 30.8119 118.06 30.8802 118.644 30.8775C119.235 30.8809 119.824 30.8126 120.398 30.6741V30.674ZM115.39 35.217C114.393 34.9852 113.428 34.6373 112.513 34.1805C111.652 33.7514 110.854 33.2072 110.139 32.5629C109.447 31.9368 108.847 31.2161 108.357 30.4222C107.86 29.614 107.479 28.7401 107.224 27.8262C106.694 25.8922 106.694 23.8514 107.224 21.9174C107.478 21.0061 107.859 20.1353 108.357 19.3311C108.851 18.5396 109.451 17.8194 110.139 17.1904C110.852 16.5409 111.65 15.9933 112.513 15.563C113.428 15.1064 114.393 14.7586 115.39 14.5266C117.545 14.0358 119.783 14.0358 121.938 14.5266C122.928 14.7565 123.888 15.1045 124.795 15.563C125.654 15.9996 126.452 16.5467 127.168 17.1904C127.868 17.8171 128.477 18.5375 128.98 19.3311C129.483 20.1336 129.868 21.0047 130.123 21.9174C130.652 23.8514 130.652 25.8922 130.123 27.8262C129.867 28.7415 129.482 29.6157 128.98 30.4222C128.481 31.2183 127.871 31.9392 127.168 32.5629C126.45 33.2014 125.652 33.7451 124.795 34.1805C123.891 34.6383 122.935 34.9862 121.947 35.217C119.789 35.7078 117.548 35.7078 115.39 35.217V35.217ZM93.8445 30.674C94.3716 30.5467 94.882 30.3581 95.3653 30.1122C95.8251 29.8771 96.2464 29.5733 96.6148 29.2113C96.9796 28.8541 97.2955 28.4502 97.5544 28.0102C97.8186 27.5571 98.0144 27.0675 98.1356 26.5572C98.2674 26.0051 98.3324 25.4393 98.3293 24.8717C98.3328 24.3073 98.2677 23.7446 98.1356 23.1959C97.8914 22.1846 97.3638 21.2639 96.6148 20.5418C96.2416 20.183 95.8212 19.8766 95.3653 19.6313C94.886 19.3741 94.3745 19.1819 93.8445 19.0598C93.2695 18.9277 92.6811 18.8627 92.0912 18.866C91.5077 18.8634 90.9258 18.9284 90.3573 19.0598C89.83 19.1808 89.3216 19.3731 88.8462 19.6313C88.3943 19.8784 87.9773 20.1846 87.6063 20.5418C87.2409 20.8936 86.9307 21.2986 86.6861 21.7429C86.4364 22.1996 86.2413 22.684 86.1049 23.1863C85.9585 23.736 85.8869 24.3029 85.8918 24.8717C85.8885 25.4405 85.9601 26.0072 86.1049 26.5572C86.2377 27.0637 86.4329 27.5518 86.6861 28.0102C86.9337 28.4525 87.2436 28.857 87.6063 29.2113C87.9724 29.5716 88.3903 29.8753 88.8462 30.1122C89.3256 30.3591 89.833 30.5478 90.3573 30.674C90.9249 30.8119 91.5071 30.8802 92.0912 30.8774C92.6817 30.8809 93.2704 30.8126 93.8445 30.674V30.674ZM88.8365 35.217C87.8403 34.9852 86.8747 34.6374 85.9596 34.1806C85.0989 33.7515 84.3005 33.2073 83.5864 32.563C82.8945 31.9369 82.2944 31.2162 81.804 30.4223C81.307 29.6141 80.9255 28.7402 80.6707 27.8263C80.1412 25.8923 80.1412 23.8515 80.6707 21.9175C80.9245 21.0062 81.306 20.1354 81.804 19.3312C82.298 18.5398 82.8976 17.8196 83.5864 17.1905C84.2985 16.5411 85.0972 15.9934 85.9596 15.5631C86.8748 15.1065 87.8404 14.7587 88.8365 14.5266C90.9916 14.0359 93.2295 14.0359 95.3846 14.5266C96.3752 14.7566 97.3345 15.1046 98.2422 15.5631C99.1009 15.9997 99.8987 16.5468 100.615 17.1905C101.315 17.8172 101.924 18.5375 102.427 19.3312C102.93 20.1337 103.315 21.0048 103.57 21.9175C104.099 23.8515 104.099 25.8923 103.57 27.8263C103.314 28.7416 102.929 29.6158 102.427 30.4223C101.928 31.2185 101.318 31.9393 100.615 32.563C99.8968 33.2015 99.0992 33.7452 98.2422 34.1806C97.3376 34.6383 96.3815 34.9862 95.3943 35.217C93.2359 35.7078 90.9949 35.7078 88.8365 35.217V35.217ZM45.2583 6.52539H51.0702L61.0087 21.7139L70.9858 6.52539H76.7978V35.0039H71.044V15.4758L62.791 28.0683H59.2651L51.0121 15.4758V35.0039H45.2583V6.52539Z" fill="#898989" fill-opacity="0.79"/>
<path d="M31.9875 11.6239C33.137 11.6239 34.2607 11.283 35.2165 10.6444C36.1722 10.0058 36.9172 9.09807 37.357 8.03608C37.7969 6.97409 37.912 5.8055 37.6878 4.67809C37.4635 3.55068 36.91 2.5151 36.0972 1.70228C35.2844 0.889466 34.2488 0.335933 33.1214 0.111677C31.994 -0.112578 30.8254 0.00251822 29.7634 0.44241C28.7014 0.882303 27.7937 1.62723 27.1551 2.583C26.5164 3.53877 26.1756 4.66245 26.1756 5.81194C26.1755 6.57519 26.3258 7.33098 26.6179 8.03614C26.9099 8.74129 27.338 9.38202 27.8777 9.92171C28.4174 10.4614 29.0582 10.8895 29.7633 11.1816C30.4685 11.4736 31.2243 11.6239 31.9875 11.6239V11.6239ZM14.1666 37.7994C11.3647 37.7994 8.62577 36.9685 6.29608 35.4119C3.96639 33.8552 2.15061 31.6427 1.07837 29.0541C0.00613659 26.4655 -0.274409 23.6171 0.272216 20.869C0.818841 18.1209 2.16808 15.5967 4.14933 13.6155C6.13057 11.6342 8.65482 10.285 11.4029 9.73836C14.1509 9.19175 16.9994 9.4723 19.588 10.5445C22.1766 11.6168 24.3891 13.4326 25.9458 15.7623C27.5024 18.092 28.3333 20.8309 28.3332 23.6328C28.3333 25.4932 27.9669 27.3354 27.255 29.0542C26.5431 30.773 25.4996 32.3347 24.184 33.6502C22.8685 34.9657 21.3068 36.0092 19.588 36.7211C17.8692 37.4331 16.027 37.7995 14.1666 37.7994" fill="#898989" fill-opacity="0.79"/>
</g>
<defs>
<clipPath id="clip0_33_6">
<rect width="233" height="42.4626" fill="white"/>
</clipPath>
</defs>
</svg>
