<svg width="113" height="25" viewBox="0 0 113 25" fill="none" xmlns="http://www.w3.org/2000/svg">
<path fill-rule="evenodd" clip-rule="evenodd" d="M1.62973 0.00476074V4.82935H22.1848L4.27375 11.1001C3.12841 11.5376 2.21458 12.1817 1.54444 13.0324C0.874301 13.883 0.423482 14.8188 0.191978 15.8274C-0.0395246 16.8482 -0.0638932 17.8812 0.131056 18.9385C0.326006 19.9958 0.703722 20.9558 1.28857 21.8308C1.86124 22.6936 2.64103 23.4106 3.6036 23.9575C4.57835 24.5044 5.72367 24.7839 7.05178 24.7839H39.9129L39.9191 24.7661C40.1414 24.7779 40.3649 24.7839 40.5902 24.7839C47.4499 24.7839 53.0061 19.2423 53.0061 12.4004C53.0061 9.56376 52.0532 6.94854 50.4483 4.85873L70.1911 4.89013C71.0683 4.89013 71.7141 5.13319 72.1284 5.61927C72.5551 6.10538 72.7499 6.64011 72.7256 7.22343C72.701 7.80676 72.4573 8.34144 72.0067 8.82756C71.5435 9.31368 70.8858 9.5567 70.0082 9.5567L53.1676 9.5964V9.87267L77.5506 24.8246V24.7718H82.4241L82.3267 7.02894C82.3267 6.56716 82.4241 6.16612 82.6193 5.80155C82.8142 5.44912 83.0822 5.16962 83.4233 4.99947C83.7645 4.82935 84.1665 4.76858 84.6051 4.81718C85.0437 4.86579 85.5193 5.07238 86.0187 5.42481L112.958 24.8447V18.9021L89.0404 1.65751C87.8829 0.806829 86.6156 0.308573 85.2755 0.138437C83.9351 -0.0316991 82.6801 0.101979 81.5226 0.527321C80.3651 0.95266 79.4024 1.65751 78.6473 2.65402C77.8795 3.65053 77.5017 4.89009 77.5017 6.38488V19.2267L68.461 14.0653L70.6786 14.0289C72.2016 14.0167 73.4565 13.6522 74.4677 12.9595C75.4793 12.2546 76.2225 11.3918 76.6977 10.3588C77.1728 9.31368 77.38 8.19563 77.3311 6.98037C77.2826 5.77725 76.9657 4.64707 76.3684 3.62625C75.7716 2.60543 74.9186 1.7426 73.7977 1.06205C72.6767 0.381507 71.2755 0.0412351 69.5942 0.0412351H46.6752V0.0412185L41.505 0.037034C41.207 0.0156418 40.906 0.00476074 40.6025 0.00476074C40.3055 0.00476074 40.0114 0.0151519 39.7199 0.035589L1.62973 0.00476074ZM29.5921 6.64858L6.17451 15.7059C5.67495 15.9125 5.33378 16.2528 5.15103 16.7146C4.96823 17.1764 4.93169 17.6503 5.05353 18.1243C5.1754 18.5982 5.44345 19.0236 5.83334 19.3881C6.22322 19.7527 6.74715 19.935 7.39295 19.935L30.7536 19.9599C29.1362 17.8689 28.1743 15.2472 28.1743 12.4004C28.1743 10.3249 28.6867 8.36792 29.5921 6.64858ZM48.1445 12.4004C48.1445 8.24424 44.7571 4.86579 40.6025 4.86579C36.4353 4.86579 33.048 8.24424 33.0602 12.4004C33.0602 16.5444 36.4353 19.9229 40.6025 19.9229C44.7571 19.9229 48.1445 16.5566 48.1445 12.4004Z" fill="#898989" fill-opacity="0.79"/>
</svg>
